HIERARCHY
ROOT hip
{
	OFFSET 0.000000 0.000000 0.000000 
	CHANNELS 6 Xposition Yposition Zposition Xrotation Zrotation Yrotation
	JOINT abdomen
	{
		OFFSET 0.000000 3.402643 0.000000 
		CHANNELS 3 Xrotation Zrotation Yrotation
		JOINT chest
		{
			OFFSET 0.000000 8.438565 -0.680529 
			CHANNELS 3 Xrotation Zrotation Yrotation
			JOINT neck
			{
				OFFSET 0.000000 10.207942 -0.272212 
				CHANNELS 3 Xrotation Zrotation Yrotation
				JOINT head
				{
					OFFSET 0.000000 3.130431 0.000000 
					CHANNELS 3 Xrotation Zrotation Yrotation
					End Site
					{
						OFFSET 0.000000 3.130435 0.000000 
					}
				}
			}
			JOINT lCollar
			{
				OFFSET 3.470700 6.669187 -0.816635 
				CHANNELS 3 Yrotation Zrotation Xrotation
				JOINT lShldr
				{
					OFFSET 3.198488 0.000000 0.000000 
					CHANNELS 3 Zrotation Yrotation Xrotation
					JOINT lForeArm
					{
						OFFSET 10.139888 0.000000 0.000000 
						CHANNELS 3 Yrotation Zrotation Xrotation
						JOINT lHand
						{
							OFFSET 8.370511 0.000000 0.000000 
							CHANNELS 3 Zrotation Yrotation Xrotation
							End Site
							{
								OFFSET 4.083176 0.000000 0.000000 
							}
						}
					}
				}
			}
			JOINT rCollar
			{
				OFFSET -3.470700 6.669187 -0.816635 
				CHANNELS 3 Yrotation Zrotation Xrotation
				JOINT rShldr
				{
					OFFSET -3.198488 0.000000 0.000000 
					CHANNELS 3 Zrotation Yrotation Xrotation
					JOINT rForeArm
					{
						OFFSET -10.139888 0.000000 0.000000 
						CHANNELS 3 Yrotation Zrotation Xrotation
						JOINT rHand
						{
							OFFSET -8.370511 0.000000 0.000000 
							CHANNELS 3 Zrotation Yrotation Xrotation
							End Site
							{
								OFFSET -4.083176 0.000000 0.000000 
							}
						}
					}
				}
			}
		}
	}
	JOINT lThigh
	{
		OFFSET 5.308129 -1.633274 1.361059 
		CHANNELS 3 Xrotation Zrotation Yrotation
		JOINT lShin
		{
			OFFSET -2.041588 -20.007561 0.000000 
			CHANNELS 3 Xrotation Zrotation Yrotation
			JOINT lFoot
			{
				OFFSET 0.000000 -19.190928 -1.224953 
				CHANNELS 3 Xrotation Yrotation Zrotation
				End Site
				{
					OFFSET 0.000000 -2.449906 4.627600 
				}
			}
		}
	}
	JOINT rThigh
	{
		OFFSET -5.308129 -1.633274 1.361059 
		CHANNELS 3 Xrotation Zrotation Yrotation
		JOINT rShin
		{
			OFFSET 2.041588 -20.007561 0.000000 
			CHANNELS 3 Xrotation Zrotation Yrotation
			JOINT rFoot
			{
				OFFSET 0.000000 -19.190928 -1.224953 
				CHANNELS 3 Xrotation Yrotation Zrotation
				End Site
				{
					OFFSET 0.000000 -2.449906 4.627600 
				}
			}
		}
	}
}
MOTION
Frames: 16
Frame Time: 0.011111
10.600707 51.813202 71.627724 -177.805435 175.395416 0.469662 8.982023 -2.889649 0.235623 -5.089781 4.099648 0.202625 -18.049524 -4.630640 -0.679053 24.680599 6.237362 -1.775288 12.413046 -14.960623 4.251975 -31.576521 -86.589813 24.569109 -59.028027 9.713480 10.954374 6.992188 16.005859 -63.708241 -6.427974 8.898234 2.089853 16.696207 93.683205 17.774475 61.844036 -10.014682 12.199656 -7.001954 -15.996095 50.292965 -10.317424 6.803583 -0.918457 39.356609 -5.089350 -2.985064 -22.730537 -7.382500 -2.897093 -16.939087 -9.420595 -7.745808 50.077709 4.726493 3.812935 -19.191872 -3.131232 -0.826287 
10.613217 51.827900 71.282433 -177.883072 175.050888 1.208988 8.895302 -2.649878 0.199819 -4.746943 4.234774 0.196342 -18.251877 -4.736089 -0.686444 24.511534 6.245063 -1.846949 12.413046 -14.960623 4.251975 -34.036419 -86.806351 26.485205 -58.911640 9.702199 10.907692 6.992188 16.005859 -64.079338 -6.427974 8.898234 2.089853 23.410555 93.120270 25.075603 62.058472 -10.032096 12.293440 -7.001954 -15.996095 50.546875 -10.124227 7.244252 -1.014683 39.250130 -5.073439 -3.004289 -23.109776 -8.089959 -3.224082 -17.466578 -8.981432 -7.958708 48.687145 4.792270 3.698495 -19.801983 -3.327828 -0.971273 
10.614156 51.827274 70.945885 -177.991791 175.161026 1.899339 8.768727 -2.943871 0.195573 -4.600086 4.214804 0.217077 -18.119099 -4.879272 -0.834925 24.372656 6.655265 -2.084343 12.413046 -14.960623 4.251975 -34.737488 -86.842690 27.297232 -59.007515 9.713737 10.942827 6.992188 16.005859 -64.118401 -6.427974 8.898234 2.089853 30.666456 92.725494 31.881203 61.950500 -10.021235 12.247143 -7.001954 -15.996095 50.429691 -9.709403 7.182258 -1.047178 38.873173 -5.089687 -2.945393 -23.157679 -8.691311 -3.495474 -18.141342 -9.079810 -8.102029 47.347912 4.823915 3.618726 -20.212860 -3.602966 -1.105014 
10.608213 51.841038 70.575562 -178.091995 175.651245 2.627029 8.581104 -3.668704 0.013712 -4.570570 4.312131 0.189219 -17.863638 -5.137982 -0.987196 24.361801 7.130071 -2.324437 12.413046 -14.960623 4.251975 -34.147369 -86.665535 26.834326 -59.071915 9.722984 10.974456 6.992188 16.005859 -63.825432 -6.427974 8.898234 2.089853 35.106926 92.556068 35.195938 61.565304 -9.990809 12.073283 -7.001954 -15.996095 49.355469 -9.140476 6.650331 -1.142451 38.478344 -5.092969 -2.940319 -23.151869 -8.984879 -3.634710 -18.875015 -9.598234 -8.074051 46.055481 4.872509 3.508778 -20.386496 -3.921452 -1.236496 
10.618848 51.839161 70.203690 -178.230652 175.854538 3.391791 8.348856 -4.054064 -0.299357 -3.972287 4.710588 0.148126 -18.225325 -5.430358 -1.029904 24.362429 7.150744 -2.535099 12.413046 -14.960623 4.251975 -36.687099 -86.879616 28.329586 -58.889694 9.697365 10.897682 6.992188 16.005859 -64.147697 -6.427974 8.898234 2.089853 41.301991 92.486328 41.514408 61.425884 -9.978157 12.015199 -7.001954 -15.996095 49.179684 -8.678452 6.423580 -1.378313 38.031113 -5.118721 -2.891453 -23.343571 -9.200252 -3.749146 -19.595678 -9.811713 -7.973781 44.831169 4.921634 3.410068 -20.724169 -4.243971 -1.391158 
10.646685 51.796940 69.863701 -178.351273 176.799088 4.195437 8.769662 -5.328358 -0.936808 -5.726177 4.075686 -0.076519 -17.530426 -4.727892 -1.178672 24.929615 7.316677 -2.487253 12.413046 -14.960623 4.251975 -29.518711 -85.664650 22.116312 -58.954094 9.706794 10.919479 6.992188 16.005859 -64.372307 -6.427974 8.898234 2.089853 53.793121 91.983002 54.079655 61.640476 -9.997782 12.106610 -7.001954 -15.996095 50.214844 -8.040294 5.396261 -1.623557 37.625069 -5.128768 -2.848492 -23.646618 -9.455484 -3.888364 -20.511129 -10.776653 -7.516504 43.578445 4.950741 3.311978 -20.807716 -4.581154 -1.521386 
10.681401 51.766289 69.524971 -178.529434 177.490906 4.997836 8.682429 -6.448741 -1.182760 -4.932761 4.485808 -0.074699 -17.811686 -4.998263 -1.235615 24.413147 7.760494 -2.615488 12.413046 -14.960623 4.251975 -31.965401 -86.329620 23.860165 -58.751347 9.680826 10.831377 6.992188 16.005859 -64.665283 -6.427974 8.898234 2.089853 73.440956 91.975761 74.051689 61.790794 -10.011305 12.176788 -7.001954 -15.996095 51.347656 -7.605404 4.754689 -1.674820 37.230293 -5.128367 -2.832423 -23.679232 -9.950248 -4.131767 -21.360521 -11.450313 -7.113256 42.274727 4.990110 3.205037 -20.676348 -4.983625 -1.614934 
10.714555 51.766914 69.166847 -178.754745 177.398758 5.692838 8.421051 -6.560843 -1.233237 -4.677819 4.690985 -0.076257 -17.929878 -5.303594 -1.334471 24.680222 8.002306 -2.872957 12.413046 -14.960623 4.251975 -33.749920 -86.442535 25.436777 -58.752773 9.685891 10.839607 6.992188 16.005859 -64.577385 -6.427974 8.898234 2.089853 -89.893402 87.870285 -89.410774 61.695248 -10.005983 12.139582 -7.001954 -15.996095 50.976563 -7.440007 5.008891 -1.626728 36.884422 -5.128821 -2.788676 -23.651281 -10.639667 -4.452128 -21.950737 -11.277639 -6.897427 40.870575 5.038348 3.087809 -20.869413 -5.100071 -1.689837 
10.721749 51.803818 68.801849 -178.892975 177.888855 6.477767 8.440714 -7.293931 -1.517431 -4.442140 5.022934 -0.126296 -18.157600 -5.382602 -1.468097 24.768223 7.835799 -3.231630 12.413046 -14.960623 4.251975 -34.744846 -86.458954 26.056383 -58.847237 9.692710 10.874505 6.992188 16.005859 -64.684807 -6.427974 8.898234 2.089853 -78.249657 87.569420 -77.834297 61.715641 -10.004613 12.141679 -7.001954 -15.996095 50.605469 -6.952938 4.560449 -1.761181 36.575855 -5.147780 -2.763061 -23.820744 -11.077839 -4.681269 -22.488058 -11.805133 -6.608489 39.349072 5.067811 2.977114 -20.761847 -5.266463 -1.734279 
10.728317 51.818520 68.440598 -178.865845 177.763123 7.360494 8.661828 -7.204529 -1.681161 -4.550437 4.690323 -0.182261 -17.989784 -5.077648 -1.736802 24.425125 7.720657 -3.696836 12.413046 -14.960623 4.251975 -34.945427 -86.517471 26.406073 -58.826725 9.692897 10.872746 6.992188 16.005859 -64.772697 -6.427974 8.898234 2.089853 -65.138832 87.149971 -65.144028 61.792320 -10.015920 12.185264 -7.001954 -15.996095 50.751953 -6.487956 4.771183 -1.964734 36.309052 -5.147418 -2.732743 -23.981886 -11.291206 -4.806863 -22.675262 -11.718386 -6.647169 37.736191 5.106644 2.846254 -20.371864 -5.775949 -1.810370 
10.760219 51.775356 68.082474 -178.847885 177.213455 8.075235 8.746915 -6.632706 -1.530076 -4.707664 4.319015 -0.162937 -17.588604 -5.064754 -1.987155 23.963890 8.047102 -4.085095 12.413046 -14.960623 4.251975 -35.926929 -86.608879 27.793091 -58.751347 9.680826 10.841143 6.992188 16.005859 -64.606682 -6.427974 8.898234 2.089853 -54.957451 86.610245 -55.597851 61.684292 -10.004349 12.129417 -7.001954 -15.996095 49.990234 -6.282198 5.512002 -2.064866 36.091568 -5.148108 -2.713697 -24.009214 -11.560645 -4.928889 -22.743448 -11.054235 -6.616072 36.091702 5.146258 2.703373 -20.075127 -6.176585 -1.887244 
10.793060 51.745335 67.729988 1.247138 2.915869 -171.311310 9.019428 -6.574434 -1.507757 -4.717338 4.416736 -0.154872 -17.607946 -5.477973 -1.997956 23.782738 8.546291 -4.116038 12.413046 -14.960623 4.251975 -37.034321 -86.675667 28.957054 -58.645905 9.671329 10.794806 6.992188 16.005859 -64.382072 -6.427974 8.898234 2.089853 -50.428009 86.068466 -51.024105 61.512035 -9.987075 12.048828 -7.001954 -15.996095 49.501957 -5.884564 5.836081 -1.997060 35.942123 -5.157525 -2.701012 -24.255489 -11.956411 -5.156201 -22.790350 -10.818668 -6.365266 34.407173 5.174988 2.575274 -19.871775 -6.369771 -1.893768 
10.811826 51.734703 67.366859 1.293441 3.273616 -170.607025 9.126355 -6.145684 -1.629593 -4.786044 4.289061 -0.207557 -17.555719 -5.846790 -1.983847 23.989855 9.103343 -4.068074 12.413046 -14.960623 4.251975 -37.438984 -86.599426 29.177860 -58.539032 9.656504 10.750104 6.992188 16.005859 -64.509026 -6.427974 8.898234 2.089853 -47.571911 85.689026 -48.221684 61.405476 -9.979404 12.001678 -7.001954 -15.996095 49.667969 -5.612401 6.461821 -1.799537 35.753304 -5.166986 -2.706194 -24.496277 -12.596517 -5.513242 -22.831520 -10.439119 -6.281386 32.829018 5.204712 2.441010 -19.865913 -6.352238 -1.894249 
10.826527 51.708427 66.999664 1.049827 3.173625 -169.920380 8.890862 -6.322786 -1.809861 -4.786155 4.190870 -0.255302 -17.190376 -6.150326 -2.074172 23.967381 9.662676 -4.151653 12.413046 -14.960623 4.251975 -37.590466 -86.497635 29.301188 -58.485600 9.648994 10.726974 6.992188 16.005859 -64.655510 -6.427974 8.898234 2.089853 -44.516655 85.331009 -45.436115 61.447796 -9.981571 12.025713 -7.001954 -15.996095 49.814453 -5.403673 6.496702 -1.733422 35.417793 -5.161820 -2.670790 -24.666454 -13.146707 -5.806931 -23.284674 -10.640703 -6.152519 31.418652 5.223645 2.310968 -19.590687 -6.325189 -1.835501 
10.863747 51.703106 66.644676 0.787325 2.242965 -169.216064 8.950923 -7.601823 -2.136035 -4.785840 4.463750 -0.307152 -17.043795 -6.521161 -2.130191 23.846485 10.213392 -4.233484 12.413046 -14.960623 4.251975 -37.975304 -86.497169 29.644920 -58.432159 9.641418 10.705503 6.992188 16.005859 -64.714104 -6.427974 8.898234 2.089853 -42.088768 84.877213 -43.103397 61.427395 -9.982828 12.023644 -7.001954 -15.996095 49.648438 -4.808712 5.579744 -1.856921 34.980820 -5.176540 -2.638462 -24.995731 -13.492666 -6.036846 -23.968893 -11.685865 -5.748139 30.127001 5.232973 2.192767 -19.352741 -6.554563 -1.849356 
10.915355 51.703735 66.282799 0.555079 1.234255 -168.444489 9.126099 -9.090587 -2.426127 -4.746095 4.961572 -0.348348 -17.024529 -6.784562 -2.268756 23.800409 10.590197 -4.503197 12.413046 -14.960623 4.251975 -39.799229 -86.661079 31.656277 -58.356773 9.628653 10.662761 6.992188 16.005859 -64.616455 -6.427974 8.898234 2.089853 -39.681728 84.261383 -40.814083 61.383560 -9.975967 11.991171 -7.001954 -15.996095 49.394531 -4.111088 4.658002 -1.888798 34.494835 -5.186506 -2.601812 -25.138411 -14.145592 -6.419394 -24.618256 -12.841207 -5.320696 28.931332 5.253283 2.100025 -19.365582 -6.945873 -1.961360 
